# xmcd CD database file
#
# Track frame offsets:
#	150
#	20034
#	43691
#	65892
#	84908
#	106771
#	127938
#	148249
#	171716
#	188408
#	211256
#	236395
#	258991
#	316873
#	337707
#
# Disc length: 4781 seconds
#
# Revision: 0
# Processed by: cddbd v1.5.2PL0 Copyright (c) Steve Scherf et al.
# Submitted via: CDex 1.70beta2
#
DISCID=cc12ab0f
DTITLE=FAIR WARNING - BROTHER'S KEEPER
DYEAR=2006
DGENRE=Melodic Rock
TTITLE0=Don't Keep Me Waiting
TTITLE1=Generation Jedi
TTITLE2=All Of My Love
TTITLE3=Rainbow Eyes
TTITLE4=Push Me On
TTITLE5=Wasted Time
TTITLE6=The Cry
TTITLE7=The Way
TTITLE8=Once Bitten Twice Shy
TTITLE9=Tell Me Lies
TTITLE10=In The Dark
TTITLE11=Still I Believe
TTITLE12=All I Wanna Do
TTITLE13=No Limit
TTITLE14=Don't Keep Me Waiting (different mix)
EXTD=YEAR: 2006
EXTT0=
EXTT1=
EXTT2=
EXTT3=
EXTT4=
EXTT5=
EXTT6=
EXTT7=
EXTT8=
EXTT9=
EXTT10=
EXTT11=
EXTT12=
EXTT13=
EXTT14=
PLAYORDER=
